<svg width="603" height="592" viewBox="132 172 344 248" fill="none" xmlns="http://www.w3.org/2000/svg">
<path d="M133.92 233.133C133.92 175.265 180.831 128.354 238.699 128.354H416.823C445.757 128.354 469.212 151.81 469.212 180.743V358.867C469.212 416.735 422.301 463.646 364.434 463.646H186.31C157.376 463.646 133.92 440.191 133.92 411.257V233.133Z" fill="#4D6E6E"/>
<path d="M230.972 385.062C218.018 385.062 207.078 382.469 198.15 377.282C189.223 371.917 181.783 363.959 175.832 353.407L202.089 333.556C205.24 339.458 208.916 343.839 213.117 346.701C217.318 349.562 221.607 350.993 225.983 350.993C232.985 350.993 238.236 348.847 241.737 344.555C245.413 340.084 247.251 332.036 247.251 320.411V206.938H285.85V323.631C285.85 334.897 283.924 345.181 280.073 354.48C276.222 363.78 270.183 371.202 261.955 376.746C253.903 382.29 243.575 385.062 230.972 385.062Z" fill="white" fill-opacity="0.8"/>
<path d="M296.327 382.442V206.938H357.069C370.085 206.938 381.835 208.733 392.32 212.322C402.986 215.731 411.483 221.563 417.81 229.818C424.137 238.073 427.301 249.289 427.301 263.465C427.301 277.104 424.137 288.32 417.81 297.113C411.483 305.906 403.077 312.456 392.592 316.763C382.106 320.89 370.627 322.954 358.153 322.954H336.189V382.442H296.327ZM336.189 291.46H355.713C377.406 291.46 388.253 282.129 388.253 263.465C388.253 254.313 385.36 247.853 379.576 244.085C373.791 240.316 365.475 238.432 354.628 238.432H336.189V291.46Z" fill="#DBE2E2"/>
</svg>
